<?xml version="1.0" standalone="no"?>
<!DOCTYPE svg PUBLIC "-//W3C//DTD SVG 20010904//EN"
 "http://www.w3.org/TR/2001/REC-SVG-20010904/DTD/svg10.dtd">
<svg version="1.0" xmlns="http://www.w3.org/2000/svg"
 width="512.000000pt" height="512.000000pt" viewBox="0 0 512.000000 512.000000"
 preserveAspectRatio="xMidYMid meet">

<g transform="translate(0.000000,512.000000) scale(0.100000,-0.100000)"
fill="#ffffff" stroke="none">
<path d="M1680 5104 c-240 -52 -441 -246 -505 -489 -21 -81 -21 -233 0 -320
53 -216 225 -402 438 -474 l52 -18 0 -193 0 -193 -57 -13 c-178 -41 -371 -172
-484 -331 -55 -76 -116 -206 -140 -298 -14 -53 -18 -105 -18 -210 1 -123 4
-151 28 -230 88 -292 323 -522 607 -594 l74 -19 3 -200 2 -201 -22 -6 c-237
-67 -426 -258 -482 -488 -22 -86 -22 -242 -1 -322 81 -308 368 -520 680 -502
174 10 313 73 436 196 84 84 136 169 169 276 103 337 -84 704 -418 821 l-67
23 0 202 0 201 83 24 c144 42 276 120 377 223 27 28 53 51 58 51 4 0 76 -48
159 -106 147 -105 150 -107 144 -138 -4 -17 -9 -74 -12 -126 -16 -267 126
-509 371 -631 359 -178 795 6 926 391 31 91 37 251 14 355 -39 176 -175 356
-330 437 -117 61 -209 81 -345 76 -172 -7 -297 -57 -425 -171 l-54 -47 -154
109 -155 110 20 63 c14 45 22 101 25 195 5 113 2 146 -17 228 -12 53 -20 98
-17 101 2 2 71 51 153 108 l148 104 61 -55 c68 -62 188 -125 285 -150 85 -21
235 -21 320 2 237 62 433 264 485 501 35 153 7 341 -68 472 -154 270 -480 401
-772 312 -171 -53 -329 -186 -404 -342 -67 -139 -88 -298 -57 -430 l13 -56
-156 -110 -156 -110 -37 43 c-93 106 -279 216 -426 252 l-72 17 0 187 0 186
68 22 c343 113 537 483 432 826 -53 171 -183 326 -340 402 -140 69 -295 89
-440 57z m242 -345 c54 -14 127 -69 165 -123 113 -165 48 -395 -135 -479 -70
-32 -198 -31 -267 3 -197 96 -245 346 -99 509 86 96 197 126 336 90z m1677
-954 c61 -33 110 -86 142 -154 34 -70 33 -187 -2 -262 -33 -69 -89 -127 -155
-160 -41 -20 -64 -24 -139 -24 -78 0 -97 4 -140 27 -62 32 -130 104 -158 166
-27 60 -29 178 -3 237 27 64 66 114 113 146 70 48 109 59 203 56 72 -3 93 -8
139 -32z m-1586 -828 c95 -47 167 -119 214 -215 32 -64 37 -85 41 -161 7 -147
-38 -262 -140 -356 -266 -247 -689 -101 -751 260 -36 210 99 426 311 496 44
15 78 18 154 16 89 -4 105 -7 171 -40z m1562 -1066 c65 -28 138 -101 167 -165
31 -69 31 -190 1 -257 -42 -94 -120 -158 -225 -185 -72 -19 -130 -13 -203 20
-74 33 -120 79 -157 154 -29 58 -33 76 -32 142 1 144 88 261 227 306 58 19
161 12 222 -15z m-1624 -948 c134 -60 210 -202 187 -349 -24 -153 -154 -266
-307 -267 -99 -1 -163 25 -232 92 -174 172 -111 451 121 535 60 22 169 16 231
-11z"/>
</g>
</svg>
